<?xml version="1.0" standalone="no"?>
<!DOCTYPE svg PUBLIC "-//W3C//DTD SVG 20010904//EN"
 "http://www.w3.org/TR/2001/REC-SVG-20010904/DTD/svg10.dtd">
<svg version="1.0" xmlns="http://www.w3.org/2000/svg"
 width="1080.000000pt" height="1080.000000pt" viewBox="0 0 1080.000000 1080.000000"
 preserveAspectRatio="xMidYMid meet">
<metadata>
Created by potrace 1.11, written by Peter Selinger 2001-2013
</metadata>
<g transform="translate(0.000000,1080.000000) scale(0.100000,-0.100000)"
fill="#000000" stroke="none">
<path d="M6050 10049 c-27 -8 -218 -193 -848 -823 l-814 -812 -537 537 c-357
357 -553 545 -582 559 -103 53 -228 8 -285 -103 -24 -46 -28 -126 -9 -172 12
-29 136 -160 446 -470 236 -237 429 -432 429 -435 0 -3 -699 -5 -1552 -5 -854
0 -1577 -3 -1606 -6 -59 -8 -157 -35 -187 -52 -11 -6 -33 -17 -50 -26 -159
-80 -287 -262 -322 -457 -6 -31 -9 -1235 -8 -3015 1 -2426 3 -2973 14 -3014
63 -235 251 -415 494 -472 59 -13 131 -16 410 -17 328 -1 337 -2 344 -21 3
-11 28 -66 54 -123 27 -57 49 -104 49 -106 0 -2 27 -61 60 -130 33 -70 60
-131 60 -136 0 -6 3 -10 8 -11 9 -1 850 -1 880 0 18 1 28 13 46 54 13 28 44
95 68 147 25 52 68 147 96 210 l52 115 2659 0 c1463 0 2661 -2 2664 -5 5 -5
87 -180 87 -185 0 -2 22 -50 48 -107 27 -57 61 -131 77 -165 17 -37 35 -63 44
-64 118 -5 884 1 890 7 4 5 20 38 36 74 16 36 45 101 65 145 21 44 59 127 85
185 26 58 50 107 52 110 2 2 149 5 326 6 294 1 329 3 397 22 233 65 394 224
463 456 l21 71 1 2945 c2 3133 3 3024 -45 3153 -79 211 -285 373 -514 404 -28
4 -1209 7 -2623 7 -1415 1 -2573 1 -2573 2 0 1 312 313 693 695 467 467 699
707 711 733 33 70 18 166 -34 230 -49 60 -158 89 -240 65z"/>
</g>
</svg>
